{
	"asset":{
		"generator":"Khronos glTF Blender I/O v4.1.63",
		"version":"2.0"
	},
	"scene":0,
	"scenes":[
		{
			"name":"Scene",
			"nodes":[
				1
			]
		}
	],
	"nodes":[
		{
			"mesh":0,
			"name":"mesh"
		},
		{
			"children":[
				0
			],
			"name":"root"
		}
	],
	"materials":[
		{
			"name":"main",
			"pbrMetallicRoughness":{
				"baseColorTexture":{
					"index":0
				},
				"metallicFactor":0
			}
		}
	],
	"meshes":[
		{
			"name":"mesh",
			"primitives":[
				{
					"attributes":{
						"POSITION":0,
						"NORMAL":1,
						"TEXCOORD_0":2
					},
					"indices":3,
					"material":0
				}
			]
		}
	],
	"textures":[
		{
			"sampler":0,
			"source":0
		}
	],
	"images":[
		{
			"mimeType":"image/jpeg",
			"name":"texture",
			"uri":"texture.jpg"
		}
	],
	"accessors":[
		{
			"bufferView":0,
			"componentType":5126,
			"count":495286,
			"max":[
				0.5208260416984558,
				0.8894155025482178,
				1.0019129514694214
			],
			"min":[
				-0.5144425630569458,
				0.018813787028193474,
				-1.0038644075393677
			],
			"type":"VEC3"
		},
		{
			"bufferView":1,
			"componentType":5126,
			"count":495286,
			"type":"VEC3"
		},
		{
			"bufferView":2,
			"componentType":5126,
			"count":495286,
			"type":"VEC2"
		},
		{
			"bufferView":3,
			"componentType":5125,
			"count":496119,
			"type":"SCALAR"
		}
	],
	"bufferViews":[
		{
			"buffer":0,
			"byteLength":5943432,
			"byteOffset":0,
			"target":34962
		},
		{
			"buffer":0,
			"byteLength":5943432,
			"byteOffset":5943432,
			"target":34962
		},
		{
			"buffer":0,
			"byteLength":3962288,
			"byteOffset":11886864,
			"target":34962
		},
		{
			"buffer":0,
			"byteLength":1984476,
			"byteOffset":15849152,
			"target":34963
		}
	],
	"samplers":[
		{
			"magFilter":9729,
			"minFilter":9987
		}
	],
	"buffers":[
		{
			"byteLength":17833628,
			"uri":"%D0%B4%D0%B8%D0%B2%D0%B0%D0%BD%D0%B3%D0%BB%D1%82%D1%84.bin"
		}
	]
}
